# xmcd
#
# Track frame offsets:
#	150
#	14378
#	29515
#	44037
#	59419
#	74473
#	89754
#	104277
#	120002
#	134482
#
# Disc length: 1965 seconds
#
# Revision: 0
# Processed by: cddbd v1.5.2PL0 Copyright (c) Steve Scherf et al.
# Submitted via: EasyCDDAExtractor 16.0.6.1
#
DISCID=8f07ab0a
DTITLE=Συλλογικός δίσκος - Λαϊκό τραγούδι 1954-1967, 1959-4
DYEAR=2008
DGENRE=Λαϊκή
TTITLE0=Γκρέϋ Καίτη - Κάτσε στον καναπέ μου [Στέλιος Χρυσίνης-Χαράλαμπος Βασιλ
TTITLE0=ειάδης]
TTITLE1=Περπινιάδης Βαγγέλης - Κάποια άπιστη κακούργα [Βαγγέλης Περπινιάδης-Σπ
TTITLE1=ύρος Περιστέρης]
TTITLE2=Μπέλλου Σωτηρία - Θέλω μάγκα και σατράπη [Βασίλης Τσιτσάνης]
TTITLE3=Καζαντζίδης Στέλιος-Λύδια Γ.-Μαρινέλλα - Πάντα εσένα συλλογιέμαι [Στρά
TTITLE3=τος Ατταλίδης-Χαράλαμπος Βασιλειάδης]
TTITLE4=Λύδια Γιώτα - Η αγάπη έχει θύματα [Κώστας Ανατσελόπουλος-Γεώργιος Κόρο
TTITLE4=ς]
TTITLE5=Γαβαλάς Πάνος - Της μοίρας μου απόκληρος [Πάνος Γαβαλάς]
TTITLE6=Μενιδιάτης Μιχάλης - Βραδιά γεμάτη πόνο [Βσίλης Καραπατάκης]
TTITLE7=Βλάσσης Βασίλης - Φάτε πλούσιοι παράδες [Θεόδωρος Δερβενιώτης-Ευτ. Παπ
TTITLE7=αγιαννοπούλου]
TTITLE8=Γαβαλάς Πάνος-Γκίκα Βούλα - Μέσ' στην έρημη τη νύχτα [Πάνος Γαβαλάς-Χα
TTITLE8=ράλαμπος Βασιλειάδης]
TTITLE9=Δούκισσα - Γλυκοχαράζει [Τόλης Εσδράς-Χρήστος Κολοκοτρώνης]
EXTD=
EXTT0=
EXTT1=
EXTT2=
EXTT3=
EXTT4=
EXTT5=
EXTT6=
EXTT7=
EXTT8=
EXTT9=
PLAYORDER=
